# xmcd
#
# Track frame offsets: 
#        150
#        15167
#        29290
#        41343
#        53130
#        67447
#        77918
#        95711
#        111461
#        124203
#        136390
#        147797
#        162913
#
# Disc length: 2313 seconds
#
# Revision: 2
# Processed by: cddbd v1.5.2PL0 Copyright (c) Steve Scherf et al.
# Submitted via: ExactAudioCopy v0.99pb4
#
DISCID=b609070d
DTITLE=The Domestic Bumblebees - Break up bop
DYEAR=2007
DGENRE=Rockabilly
TTITLE0=Ain't it a shame
TTITLE1=Let's rock'n'roll
TTITLE2=My girl can't quit pickin'
TTITLE3=Tender Little lucy
TTITLE4=Fine bottle blues
TTITLE5=No loving queen
TTITLE6=Break up bop
TTITLE7=Honey bee
TTITLE8=High school confidential
TTITLE9=The screaming lobster
TTITLE10=Shake it
TTITLE11=Give me back my wig
TTITLE12=Road runner
EXTD=YEAR: 2007
EXTT0=
EXTT1=
EXTT2=
EXTT3=
EXTT4=
EXTT5=
EXTT6=
EXTT7=
EXTT8=
EXTT9=
EXTT10=
EXTT11=
EXTT12=
PLAYORDER=
